<svg width="24" height="25" viewBox="0 0 24 25" fill="none" xmlns="http://www.w3.org/2000/svg">
<path fill-rule="evenodd" clip-rule="evenodd" d="M11 19.4211C10.448 19.4211 10 18.9695 10 18.413C10 17.8566 10.448 17.405 11 17.405C11.552 17.405 12 17.8566 12 18.413C12 18.9695 11.552 19.4211 11 19.4211ZM21 17.405H13.815C13.401 16.2353 12.302 15.39 11 15.39C9.698 15.39 8.599 16.2353 8.185 17.405H3C2.447 17.405 2 17.8553 2 18.4124C2 18.9696 2.447 19.4199 3 19.4199H8.185C8.599 20.5896 9.698 21.4348 11 21.4348C12.302 21.4348 13.401 20.5896 13.815 19.4199H21C21.553 19.4199 22 18.9696 22 18.4124C22 17.8553 21.553 17.405 21 17.405ZM19 13.3763C18.448 13.3763 18 12.9247 18 12.3682C18 11.8118 18.448 11.3602 19 11.3602C19.552 11.3602 20 11.8118 20 12.3682C20 12.9247 19.552 13.3763 19 13.3763ZM19 9.34522C17.698 9.34522 16.599 10.1905 16.185 11.3602H3C2.447 11.3602 2 11.8105 2 12.3676C2 12.9248 2.447 13.3751 3 13.3751H16.185C16.599 14.5448 17.698 15.39 19 15.39C20.654 15.39 22 14.034 22 12.3676C22 10.7013 20.654 9.34522 19 9.34522ZM7 5.31535C7.552 5.31535 8 5.76696 8 6.3234C8 6.87985 7.552 7.33146 7 7.33146C6.448 7.33146 6 6.87985 6 6.3234C6 5.76696 6.448 5.31535 7 5.31535ZM3 7.33029H4.185C4.599 8.49996 5.698 9.34522 7 9.34522C8.302 9.34522 9.401 8.49996 9.815 7.33029H21C21.553 7.33029 22 6.87995 22 6.32282C22 5.76569 21.553 5.31535 21 5.31535H9.815C9.401 4.14568 8.302 3.30042 7 3.30042C5.698 3.30042 4.599 4.14568 4.185 5.31535H3C2.447 5.31535 2 5.76569 2 6.32282C2 6.87995 2.447 7.33029 3 7.33029Z" fill="#530666"/>
</svg>
