<svg width="48" height="48" viewBox="0 0 48 48" fill="none" xmlns="http://www.w3.org/2000/svg">
<path d="M24 48C37.2548 48 48 37.2548 48 24C48 10.7452 37.2548 0 24 0C10.7452 0 0 10.7452 0 24C0 37.2548 10.7452 48 24 48Z" fill="url(#paint0_linear_68_168)"/>
<path d="M9.40779 25.6986C12.17 24.1336 15.2533 22.8275 18.1342 21.5147C23.0905 19.3645 28.0665 17.2515 33.0927 15.2843C34.0706 14.9491 35.8277 14.6214 36 16.112C35.9057 18.2219 35.5176 20.3195 35.2514 22.4171C34.5757 27.0299 33.7948 31.6269 33.0332 36.2245C32.7709 37.7559 30.9057 38.5487 29.7122 37.5687C26.8441 35.576 23.9539 33.6027 21.1224 31.5639C20.1949 30.5945 21.055 29.2024 21.8834 28.5102C24.2457 26.1157 26.7509 24.0813 28.9897 21.563C29.5936 20.063 27.8092 21.3272 27.2207 21.7145C23.9867 24.0067 20.8319 26.4389 17.4223 28.4535C15.6807 29.4396 13.6508 28.5968 11.9099 28.0466C10.3491 27.3819 8.06179 26.7122 9.40764 25.6987L9.40779 25.6986Z" fill="white"/>
<defs>
<linearGradient id="paint0_linear_68_168" x1="18.0028" y1="2.0016" x2="6.0028" y2="30" gradientUnits="userSpaceOnUse">
<stop stop-color="#37AEE2"/>
<stop offset="1" stop-color="#1E96C8"/>
</linearGradient>
</defs>
</svg>
