<svg width="48" height="48" viewBox="0 0 48 48" fill="none" xmlns="http://www.w3.org/2000/svg">
<path d="M24 48C37.2548 48 48 37.2548 48 24C48 10.7452 37.2548 0 24 0C10.7452 0 0 10.7452 0 24C0 37.2548 10.7452 48 24 48Z" fill="#25D366"/>
<path fill-rule="evenodd" clip-rule="evenodd" d="M24.5607 37.7508H24.5547C22.1381 37.75 19.7635 37.1465 17.6545 36.0017L10 38L12.0485 30.5535C10.7849 28.3741 10.12 25.9021 10.1211 23.3693C10.1242 15.4461 16.6017 9 24.5606 9C28.4233 9.00166 32.0487 10.4982 34.7748 13.2145C37.501 15.9306 39.0015 19.541 39 23.3807C38.9968 31.3021 32.5219 37.7476 24.5607 37.7508ZM17.9495 33.568L18.3877 33.8279C20.2301 34.9209 22.3421 35.4992 24.4954 35.5H24.5002C31.1142 35.5 36.4974 30.1187 36.5 23.5043C36.5012 20.2991 35.2543 17.2853 32.9887 15.0178C30.7231 12.7504 27.7101 11.5011 24.5049 11.5C17.8858 11.5 12.5026 16.8808 12.5 23.4946C12.4991 25.7612 13.1335 27.9686 14.3347 29.8785L14.62 30.3324L13.4078 34.7589L17.9495 33.568ZM31.4408 27.0662C31.6982 27.1912 31.872 27.2757 31.9463 27.4002C32.0385 27.5549 32.0385 28.2978 31.7311 29.1646C31.4235 30.0313 29.9491 30.8223 29.2399 30.9288C28.6041 31.0244 27.7995 31.0642 26.9155 30.7818C26.3794 30.6108 25.692 30.3825 24.8115 30.0002C21.3517 28.4983 19.0135 25.127 18.5716 24.4898C18.5407 24.4452 18.519 24.414 18.507 24.3978L18.504 24.3938C18.3087 24.1318 17 22.3764 17 20.5596C17 18.8505 17.8351 17.9547 18.2194 17.5424C18.2458 17.5141 18.27 17.4881 18.2917 17.4643C18.63 17.0929 19.0298 17 19.2758 17C19.5218 17 19.7681 17.0023 19.9832 17.0131C20.0097 17.0145 20.0373 17.0143 20.0658 17.0142C20.2809 17.0129 20.549 17.0113 20.8135 17.6501C20.9153 17.8959 21.0642 18.2603 21.2212 18.6446C21.5388 19.4219 21.8897 20.2807 21.9514 20.405C22.0437 20.5907 22.1052 20.8073 21.9822 21.0551C21.9637 21.0922 21.9466 21.1273 21.9303 21.1607C21.8379 21.3504 21.7699 21.4899 21.6131 21.674C21.5514 21.7464 21.4877 21.8244 21.424 21.9024C21.297 22.0579 21.1701 22.2133 21.0595 22.324C20.8748 22.509 20.6824 22.7098 20.8977 23.0812C21.113 23.4527 21.8537 24.6677 22.9508 25.6515C24.1302 26.7091 25.1552 27.1561 25.6748 27.3827C25.7762 27.4269 25.8584 27.4628 25.9187 27.4931C26.2876 27.6789 26.5029 27.6478 26.7182 27.4002C26.9335 27.1526 27.6408 26.3168 27.8868 25.9454C28.1328 25.5741 28.3789 25.6359 28.7171 25.7597C29.0555 25.8836 30.8699 26.7811 31.239 26.9668C31.311 27.0031 31.3784 27.0358 31.4408 27.0662Z" fill="#FDFDFD"/>
</svg>
