<svg width="24" height="25" viewBox="0 0 24 25" fill="none" xmlns="http://www.w3.org/2000/svg">
<path fill-rule="evenodd" clip-rule="evenodd" d="M12.0002 8.89121C12.2562 8.89121 12.5122 8.98931 12.7072 9.18452L16.7072 13.1888C17.0982 13.5802 17.0982 14.2129 16.7072 14.6043C16.3162 14.9957 15.6842 14.9957 15.2932 14.6043L11.9882 11.2958L8.69524 14.4791C8.29624 14.8625 7.66524 14.8515 7.28124 14.4541C6.89724 14.0567 6.90824 13.422 7.30524 13.0386L11.3052 9.1725C11.5002 8.9843 11.7502 8.89121 12.0002 8.89121Z" fill="#1C2540"/>
<mask id="mask0_129_2005" style="mask-type:alpha" maskUnits="userSpaceOnUse" x="7" y="8" width="11" height="7">
<path fill-rule="evenodd" clip-rule="evenodd" d="M12.0002 8.89121C12.2562 8.89121 12.5122 8.98931 12.7072 9.18452L16.7072 13.1888C17.0982 13.5802 17.0982 14.2129 16.7072 14.6043C16.3162 14.9957 15.6842 14.9957 15.2932 14.6043L11.9882 11.2958L8.69524 14.4791C8.29624 14.8625 7.66524 14.8515 7.28124 14.4541C6.89724 14.0567 6.90824 13.422 7.30524 13.0386L11.3052 9.1725C11.5002 8.9843 11.7502 8.89121 12.0002 8.89121Z" fill="white"/>
</mask>
<g mask="url(#mask0_129_2005)">
<rect x="24" y="24.4077" width="24" height="24.0255" transform="rotate(-180 24 24.4077)" fill="#1C2540"/>
</g>
</svg>
