<svg width="48" height="48" viewBox="0 0 48 48" fill="none" xmlns="http://www.w3.org/2000/svg">
<path fill-rule="evenodd" clip-rule="evenodd" d="M35.9865 14.098C35.9865 13 35.0985 12.106 33.9985 12.1L18.0125 12H18.0005C16.9005 12 16.0085 12.888 16.0005 13.988C15.9925 15.092 16.8825 15.994 17.9885 16L29.1045 16.07L12.5865 32.586C11.8045 33.368 11.8045 34.634 12.5865 35.414C12.9765 35.806 13.4885 36 14.0005 36C14.5125 36 15.0245 35.806 15.4145 35.414L31.9905 18.838L32.0005 30.002C32.0005 31.106 32.8965 32 34.0005 32H34.0025C35.1065 32 36.0005 31.102 36.0005 29.998L35.9865 14.098Z" fill="#231F20"/>
<mask id="mask0_137_1604" style="mask-type:alpha" maskUnits="userSpaceOnUse" x="12" y="12" width="25" height="24">
<path fill-rule="evenodd" clip-rule="evenodd" d="M35.9865 14.098C35.9865 13 35.0985 12.106 33.9985 12.1L18.0125 12H18.0005C16.9005 12 16.0085 12.888 16.0005 13.988C15.9925 15.092 16.8825 15.994 17.9885 16L29.1045 16.07L12.5865 32.586C11.8045 33.368 11.8045 34.634 12.5865 35.414C12.9765 35.806 13.4885 36 14.0005 36C14.5125 36 15.0245 35.806 15.4145 35.414L31.9905 18.838L32.0005 30.002C32.0005 31.106 32.8965 32 34.0005 32H34.0025C35.1065 32 36.0005 31.102 36.0005 29.998L35.9865 14.098Z" fill="white"/>
</mask>
<g mask="url(#mask0_137_1604)">
<rect width="48" height="48" fill="#0D1C2E"/>
</g>
</svg>
