<svg width="32" height="32" viewBox="0 0 32 32" fill="none" xmlns="http://www.w3.org/2000/svg">
<path fill-rule="evenodd" clip-rule="evenodd" d="M15.5082 0.0611249C15.4004 0.0944249 15.2401 0.156701 15.1519 0.199535C14.9168 0.31377 14.3578 0.873061 13.6909 1.66123C12.6672 2.87107 12.0707 3.55161 11.9339 3.6657C11.8539 3.73237 11.7627 3.77633 11.7044 3.77626C11.5932 3.77613 10.3773 3.49079 9.31019 3.21442C8.00103 2.87532 7.3666 2.78298 6.83457 2.85407C6.45322 2.90505 6.20868 3.02374 5.9313 3.29256C5.44744 3.76152 5.40127 3.99258 5.26673 6.61947C5.20354 7.85276 5.15517 8.36827 5.09608 8.43742C5.07267 8.4648 4.87722 8.56722 4.66172 8.665C4.29757 8.83025 3.94521 8.96688 2.56011 9.47987C1.69503 9.80024 0.973755 10.1073 0.724056 10.2615C0.0788264 10.6601 -0.165352 11.4354 0.114625 12.1968C0.196766 12.4202 0.458825 12.8369 1.25362 14.0081C2.17121 15.3602 2.427 15.7553 2.49486 15.9251L2.55577 16.0776L2.43644 16.2976C2.37083 16.4185 2.16547 16.7343 1.9801 16.9994C1.11503 18.2361 0.442796 19.2835 0.186863 19.7933C0.0557799 20.0544 0.0335884 20.1319 0.0202663 20.3743C0.00217112 20.7037 0.0620847 20.9387 0.253046 21.2873C0.414727 21.5825 0.64968 21.7847 1.03388 21.9592C1.33833 22.0974 2.71944 22.6264 3.78902 23.0143C4.6427 23.324 5.04589 23.4905 5.11025 23.56C5.2132 23.6712 5.33808 25.0228 5.42475 26.9638C5.4729 28.0429 5.56388 28.3282 5.98805 28.7308C6.33467 29.0598 6.65839 29.2144 7.10172 29.2627C7.42904 29.2983 7.9486 29.1977 9.18552 28.8588C10.3262 28.5463 11.2457 28.3263 11.6742 28.2634C11.8759 28.2338 11.8874 28.2362 12.0041 28.3342C12.1217 28.4329 12.5884 28.9627 13.6016 30.1474C14.8079 31.5581 15.0989 31.8154 15.6396 31.9493C15.9093 32.0161 16.1374 32.0168 16.4257 31.9518C17.0056 31.8212 17.1948 31.6517 18.5893 30.0137C18.9224 29.6225 19.4036 29.0635 19.6586 28.7715C20.1058 28.2597 20.1276 28.2403 20.2674 28.2305C20.4588 28.217 20.9446 28.3243 22.3675 28.6943C24.1267 29.1518 24.3098 29.1883 24.8599 29.1914L25.3243 29.1941L25.5926 29.0675C26.2452 28.7598 26.5405 28.2815 26.6181 27.4065C26.6616 26.916 26.7522 25.3807 26.7952 24.4051C26.8278 23.6645 26.8526 23.5798 27.0797 23.4335C27.1862 23.3649 27.9428 23.0691 29.0974 22.6446C29.7699 22.3973 30.8273 21.9757 31.0777 21.8548C31.6536 21.577 32.0009 21.0362 32 20.419C31.9991 19.842 31.9082 19.6743 30.362 17.396C29.7535 16.4994 29.4714 16.0483 29.4714 15.9719C29.4714 15.8939 29.9674 15.101 30.7957 13.8549C31.9296 12.1492 31.983 12.0375 31.959 11.4224C31.947 11.1136 31.9331 11.0547 31.8182 10.8245C31.6498 10.4875 31.4225 10.2517 31.1201 10.1005C30.8406 9.96078 29.9731 9.60987 29.3289 9.37588C28.3002 9.0023 27.2665 8.60157 27.0681 8.49946C26.8862 8.40582 26.8519 8.3728 26.8308 8.27085C26.776 8.0068 26.6809 6.67395 26.5854 4.83189L26.5457 4.06578L26.4104 3.79339C26.1364 3.24189 25.7983 2.93215 25.3143 2.78924C24.7915 2.6349 24.4842 2.68543 21.902 3.35044C20.6422 3.6749 20.352 3.74231 20.2155 3.74231C20.07 3.74231 19.8148 3.47612 18.5178 1.97176C17.2261 0.473494 17.1417 0.388984 16.7462 0.19739C16.3283 -0.00499858 15.8813 -0.0541996 15.5082 0.0611249ZM12.2715 10.2969C12.8524 10.409 13.4206 10.708 13.8891 11.148C14.362 11.5922 14.5941 11.9437 14.777 12.4929C14.9679 13.0663 14.9358 14.0084 14.7054 14.5936C14.4317 15.2885 13.6957 16.0247 12.9523 16.3468C12.4211 16.5771 11.7437 16.682 11.2188 16.6152C9.61368 16.411 8.44166 15.2748 8.24054 13.7278C8.15972 13.1061 8.39179 12.2264 8.77827 11.6895C8.93596 11.4704 9.34731 11.0606 9.61069 10.8603C10.3138 10.3255 11.3177 10.113 12.2715 10.2969ZM20.769 10.4C20.9494 10.486 21.0947 10.6437 21.1698 10.8353C21.2198 10.9627 21.2177 11.2531 21.1661 11.346C21.0828 11.4959 19.8121 12.9914 17.7975 15.3105C17.2241 15.9706 16.2791 17.0585 15.6976 17.728C12.8292 21.0305 12.1429 21.7986 11.9552 21.9161C11.8875 21.9585 11.7881 21.9756 11.6093 21.9756C11.4011 21.9756 11.3306 21.96 11.1956 21.8841C10.9535 21.7481 10.8302 21.5577 10.8126 21.2927C10.7942 21.0172 10.851 20.9016 11.2381 20.4264C11.5335 20.0639 11.7839 19.7727 13.4782 17.8216C13.9987 17.2224 14.9365 16.1422 15.5624 15.4212C18.6952 11.8121 19.9308 10.4407 20.121 10.3611C20.2983 10.287 20.5654 10.3031 20.769 10.4ZM11.1803 12.1636C10.7442 12.3015 10.4407 12.5981 10.291 13.0328C10.2434 13.1706 10.2317 13.2909 10.2428 13.5265C10.2556 13.8005 10.2718 13.8637 10.3777 14.0528C10.5258 14.3175 10.78 14.5414 11.0484 14.6436C11.3572 14.7613 11.8532 14.7554 12.1332 14.6308C12.3934 14.515 12.7013 14.2378 12.8177 14.0146C12.8992 13.8581 12.9079 13.8022 12.9079 13.4293C12.9079 13.0561 12.8993 13.0006 12.8174 12.8435C12.6984 12.6152 12.4272 12.3772 12.1396 12.2485C11.8653 12.1258 11.4234 12.0867 11.1803 12.1636ZM21.2036 15.7267C21.9499 15.9023 22.6467 16.3446 23.1032 16.9325C24.0139 18.1054 24.0058 19.6065 23.0823 20.7779C22.5965 21.3942 21.8295 21.8506 21.0649 21.9783C20.638 22.0496 19.9609 22.0274 19.5656 21.9292C18.4458 21.651 17.5486 20.8032 17.2161 19.7091C17.1062 19.3474 17.0798 18.6027 17.163 18.2104C17.3291 17.4268 17.779 16.7622 18.481 16.2633C18.9098 15.9587 19.3218 15.7818 19.8538 15.6741C20.1683 15.6104 20.8169 15.6356 21.2036 15.7267ZM20.1791 17.5349C19.9626 17.5755 19.7456 17.6821 19.5583 17.8397C18.9513 18.3504 18.9064 19.2176 19.4595 19.7462C20.1344 20.3914 21.2194 20.2222 21.653 19.4043C21.9168 18.9066 21.8055 18.2686 21.3901 17.8971C21.1736 17.7036 20.9801 17.6085 20.6782 17.5473C20.4148 17.4939 20.3991 17.4935 20.1791 17.5349Z" fill="#530666"/>
</svg>
